<mxfile host="65bd71144e">
    <diagram id="oL66xi15i7i_F4fjA9Xc" name="PÃ¡gina-1">
        <mxGraphModel dx="662" dy="354" grid="1" gridSize="10" guides="1" tooltips="1" connect="1" arrows="1" fold="1" page="1" pageScale="1" pageWidth="827" pageHeight="1169" math="0" shadow="0">
            <root>
                <mxCell id="0"/>
                <mxCell id="1" parent="0"/>
                <mxCell id="4" value="" style="edgeStyle=none;html=1;" edge="1" parent="1" source="2" target="3">
                    <mxGeometry relative="1" as="geometry"/>
                </mxCell>
                <mxCell id="2" value="Inicio" style="ellipse;whiteSpace=wrap;html=1;fillColor=#FF3333;" vertex="1" parent="1">
                    <mxGeometry x="240" y="30" width="120" height="80" as="geometry"/>
                </mxCell>
                <mxCell id="6" value="" style="edgeStyle=none;html=1;" edge="1" parent="1" source="3" target="5">
                    <mxGeometry relative="1" as="geometry"/>
                </mxCell>
                <mxCell id="3" value="edad" style="shape=parallelogram;perimeter=parallelogramPerimeter;whiteSpace=wrap;html=1;fixedSize=1;fillColor=#999900;" vertex="1" parent="1">
                    <mxGeometry x="240" y="140" width="120" height="60" as="geometry"/>
                </mxCell>
                <mxCell id="8" value="" style="edgeStyle=none;html=1;" edge="1" parent="1" source="5" target="7">
                    <mxGeometry relative="1" as="geometry">
                        <Array as="points">
                            <mxPoint x="130" y="280"/>
                        </Array>
                    </mxGeometry>
                </mxCell>
                <mxCell id="11" value="" style="edgeStyle=none;html=1;" edge="1" parent="1" source="5" target="9">
                    <mxGeometry relative="1" as="geometry">
                        <Array as="points">
                            <mxPoint x="470" y="280"/>
                        </Array>
                    </mxGeometry>
                </mxCell>
                <mxCell id="5" value="edad&amp;gt;=18" style="rhombus;whiteSpace=wrap;html=1;fillColor=#990000;" vertex="1" parent="1">
                    <mxGeometry x="260" y="240" width="80" height="80" as="geometry"/>
                </mxCell>
                <mxCell id="7" value="MENOR DE EDAD" style="shape=document;whiteSpace=wrap;html=1;boundedLbl=1;fillColor=#663300;" vertex="1" parent="1">
                    <mxGeometry x="70" y="300" width="120" height="80" as="geometry"/>
                </mxCell>
                <mxCell id="9" value="MAYOR DE EDAD&amp;nbsp;" style="shape=document;whiteSpace=wrap;html=1;boundedLbl=1;fillColor=#99FF33;" vertex="1" parent="1">
                    <mxGeometry x="414" y="300" width="120" height="80" as="geometry"/>
                </mxCell>
                <mxCell id="12" value="Fin" style="ellipse;whiteSpace=wrap;html=1;fillColor=#004C99;" vertex="1" parent="1">
                    <mxGeometry x="240" y="440" width="120" height="60" as="geometry"/>
                </mxCell>
                <mxCell id="15" value="" style="endArrow=none;html=1;entryX=0.417;entryY=1;entryDx=0;entryDy=0;entryPerimeter=0;" edge="1" parent="1" target="7">
                    <mxGeometry width="50" height="50" relative="1" as="geometry">
                        <mxPoint x="480" y="410" as="sourcePoint"/>
                        <mxPoint x="290" y="340" as="targetPoint"/>
                        <Array as="points">
                            <mxPoint x="120" y="410"/>
                        </Array>
                    </mxGeometry>
                </mxCell>
                <mxCell id="16" value="" style="endArrow=none;html=1;" edge="1" parent="1">
                    <mxGeometry width="50" height="50" relative="1" as="geometry">
                        <mxPoint x="480" y="410" as="sourcePoint"/>
                        <mxPoint x="479" y="370" as="targetPoint"/>
                        <Array as="points">
                            <mxPoint x="480" y="390"/>
                        </Array>
                    </mxGeometry>
                </mxCell>
                <mxCell id="20" value="" style="endArrow=classic;html=1;" edge="1" parent="1">
                    <mxGeometry width="50" height="50" relative="1" as="geometry">
                        <mxPoint x="300" y="410" as="sourcePoint"/>
                        <mxPoint x="300" y="440" as="targetPoint"/>
                        <Array as="points"/>
                    </mxGeometry>
                </mxCell>
            </root>
        </mxGraphModel>
    </diagram>
</mxfile>